<?xml version="1.0" encoding="UTF-8" standalone="no"?>
<!-- Created with Inkscape (http://www.inkscape.org/) -->

<svg
   xmlns:dc="http://purl.org/dc/elements/1.1/"
   xmlns:cc="http://creativecommons.org/ns#"
   xmlns:rdf="http://www.w3.org/1999/02/22-rdf-syntax-ns#"
   xmlns:svg="http://www.w3.org/2000/svg"
   xmlns="http://www.w3.org/2000/svg"
   xmlns:sodipodi="http://sodipodi.sourceforge.net/DTD/sodipodi-0.dtd"
   xmlns:inkscape="http://www.inkscape.org/namespaces/inkscape"
   width="84.384796mm"
   height="40.719807mm"
   viewBox="0 0 299.00125 144.28278"
   id="svg2"
   version="1.1"
   inkscape:version="0.91 r13725"
   sodipodi:docname="logo.svg">
  <defs
     id="defs4">
    <clipPath
       id="clipPath4160"
       clipPathUnits="userSpaceOnUse">
      <path
         inkscape:connector-curvature="0"
         id="path4162"
         d="m 0,0 540,0 0,385.004 -540,0 L 0,0 Z" />
    </clipPath>
    <clipPath
       id="clipPath4168"
       clipPathUnits="userSpaceOnUse">
      <path
         inkscape:connector-curvature="0"
         id="path4170"
         d="m 226.215,356.252 203.69,0 0,-224.639 -203.69,0 0,224.639 z" />
    </clipPath>
    <clipPath
       id="clipPath4172"
       clipPathUnits="userSpaceOnUse">
      <path
         inkscape:connector-curvature="0"
         id="path4174"
         d="m 226.215,131.613 203.69,0 0,224.639 -203.69,0 0,-224.639 z" />
    </clipPath>
    <clipPath
       id="clipPath4176"
       clipPathUnits="userSpaceOnUse">
      <path
         inkscape:connector-curvature="0"
         id="path4178"
         d="m 260.167,325.131 31.062,0 0,-26.083 -31.062,0 0,26.083 z" />
    </clipPath>
    <clipPath
       id="clipPath4180"
       clipPathUnits="userSpaceOnUse">
      <path
         inkscape:connector-curvature="0"
         id="path4182"
         d="m 260.167,299.048 31.062,0 0,26.082 -31.062,0 0,-26.082 z" />
    </clipPath>
    <clipPath
       id="clipPath4184"
       clipPathUnits="userSpaceOnUse">
      <path
         inkscape:connector-curvature="0"
         id="path4186"
         d="m 264.45,320.152 38.633,0 0,-35.102 -38.633,0 0,35.102 z" />
    </clipPath>
    <clipPath
       id="clipPath4188"
       clipPathUnits="userSpaceOnUse">
      <path
         inkscape:connector-curvature="0"
         id="path4190"
         d="m 264.45,285.05 38.634,0 0,35.102 -38.634,0 0,-35.102 z" />
    </clipPath>
    <clipPath
       id="clipPath4192"
       clipPathUnits="userSpaceOnUse">
      <path
         inkscape:connector-curvature="0"
         id="path4194"
         d="m 254.055,308.045 25.669,0 0,-30.219 -25.669,0 0,30.219 z" />
    </clipPath>
    <clipPath
       id="clipPath4196"
       clipPathUnits="userSpaceOnUse">
      <path
         inkscape:connector-curvature="0"
         id="path4198"
         d="m 254.055,277.826 25.669,0 0,30.219 -25.669,0 0,-30.219 z" />
    </clipPath>
    <clipPath
       id="clipPath4200"
       clipPathUnits="userSpaceOnUse">
      <path
         inkscape:connector-curvature="0"
         id="path4202"
         d="m 236.485,293.082 25.658,0 0,-30.216 -25.658,0 0,30.216 z" />
    </clipPath>
    <clipPath
       id="clipPath4204"
       clipPathUnits="userSpaceOnUse">
      <path
         inkscape:connector-curvature="0"
         id="path4206"
         d="m 236.485,262.866 25.658,0 0,30.216 -25.658,0 0,-30.216 z" />
    </clipPath>
    <clipPath
       id="clipPath4208"
       clipPathUnits="userSpaceOnUse">
      <path
         inkscape:connector-curvature="0"
         id="path4210"
         d="m 301.047,347.495 25.668,0 0,-30.219 -25.668,0 0,30.219 z" />
    </clipPath>
    <clipPath
       id="clipPath4212"
       clipPathUnits="userSpaceOnUse">
      <path
         inkscape:connector-curvature="0"
         id="path4214"
         d="m 301.047,317.276 25.667,0 0,30.219 -25.667,0 0,-30.219 z" />
    </clipPath>
    <clipPath
       id="clipPath4216"
       clipPathUnits="userSpaceOnUse">
      <path
         inkscape:connector-curvature="0"
         id="path4218"
         d="m 283.476,332.532 25.659,0 0,-30.216 -25.659,0 0,30.216 z" />
    </clipPath>
    <clipPath
       id="clipPath4220"
       clipPathUnits="userSpaceOnUse">
      <path
         inkscape:connector-curvature="0"
         id="path4222"
         d="m 283.476,302.316 25.659,0 0,30.216 -25.659,0 0,-30.216 z" />
    </clipPath>
    <clipPath
       id="clipPath4224"
       clipPathUnits="userSpaceOnUse">
      <path
         inkscape:connector-curvature="0"
         id="path4226"
         d="m 228.046,287.088 26.642,0 0,-31.445 -26.642,0 0,31.445 z" />
    </clipPath>
    <clipPath
       id="clipPath4228"
       clipPathUnits="userSpaceOnUse">
      <path
         inkscape:connector-curvature="0"
         id="path4230"
         d="m 228.046,255.643 26.642,0 0,31.445 -26.642,0 0,-31.445 z" />
    </clipPath>
    <clipPath
       id="clipPath4232"
       clipPathUnits="userSpaceOnUse">
      <path
         inkscape:connector-curvature="0"
         id="path4234"
         d="m 308.513,354.687 26.604,0 0,-31.414 -26.604,0 0,31.414 z" />
    </clipPath>
    <clipPath
       id="clipPath4236"
       clipPathUnits="userSpaceOnUse">
      <path
         inkscape:connector-curvature="0"
         id="path4238"
         d="m 308.513,323.273 26.604,0 0,31.413 -26.604,0 0,-31.413 z" />
    </clipPath>
    <clipPath
       id="clipPath4240"
       clipPathUnits="userSpaceOnUse">
      <path
         inkscape:connector-curvature="0"
         id="path4242"
         d="m 311.768,271.235 70.111,0 0,-76.147 -70.111,0 0,76.147 z" />
    </clipPath>
    <clipPath
       id="clipPath4244"
       clipPathUnits="userSpaceOnUse">
      <path
         inkscape:connector-curvature="0"
         id="path4246"
         d="m 311.768,195.088 70.112,0 0,76.147 -70.112,0 0,-76.147 z" />
    </clipPath>
    <clipPath
       id="clipPath4248"
       clipPathUnits="userSpaceOnUse">
      <path
         inkscape:connector-curvature="0"
         id="path4250"
         d="m 313.249,341.747 14.142,0 0,-16.789 -14.142,0 0,16.789 z" />
    </clipPath>
    <clipPath
       id="clipPath4252"
       clipPathUnits="userSpaceOnUse">
      <path
         inkscape:connector-curvature="0"
         id="path4254"
         d="m 313.25,324.958 14.141,0 0,16.789 -14.141,0 0,-16.789 z" />
    </clipPath>
    <clipPath
       id="clipPath4256"
       clipPathUnits="userSpaceOnUse">
      <path
         inkscape:connector-curvature="0"
         id="path4258"
         d="m 304.354,280.436 9.758,0 0,-9.839 -9.758,0 0,9.839 z" />
    </clipPath>
    <clipPath
       id="clipPath4260"
       clipPathUnits="userSpaceOnUse">
      <path
         inkscape:connector-curvature="0"
         id="path4262"
         d="m 304.354,270.597 9.758,0 0,9.839 -9.758,0 0,-9.839 z" />
    </clipPath>
    <clipPath
       id="clipPath4500"
       clipPathUnits="userSpaceOnUse">
      <path
         inkscape:connector-curvature="0"
         id="path4502"
         d="m 219.261,346.822 217.1,0 0,-212.515 -217.1,0 0,212.515 z" />
    </clipPath>
    <clipPath
       id="clipPath4504"
       clipPathUnits="userSpaceOnUse">
      <path
         inkscape:connector-curvature="0"
         id="path4506"
         d="m 219.261,134.307 217.1,0 0,212.514 -217.1,0 0,-212.514 z" />
    </clipPath>
    <clipPath
       id="clipPath4508"
       clipPathUnits="userSpaceOnUse">
      <path
         inkscape:connector-curvature="0"
         id="path4510"
         d="m 251.161,313.7 28.564,0 0,-28.856 -28.564,0 0,28.856 z" />
    </clipPath>
    <clipPath
       id="clipPath4512"
       clipPathUnits="userSpaceOnUse">
      <path
         inkscape:connector-curvature="0"
         id="path4514"
         d="m 251.161,284.844 28.565,0 0,28.856 -28.565,0 0,-28.856 z" />
    </clipPath>
    <clipPath
       id="clipPath4516"
       clipPathUnits="userSpaceOnUse">
      <path
         inkscape:connector-curvature="0"
         id="path4518"
         d="m 255.947,309.204 37.05,0 0,-37.023 -37.05,0 0,37.023 z" />
    </clipPath>
    <clipPath
       id="clipPath4520"
       clipPathUnits="userSpaceOnUse">
      <path
         inkscape:connector-curvature="0"
         id="path4522"
         d="m 255.947,272.181 37.05,0 0,37.022 -37.05,0 0,-37.022 z" />
    </clipPath>
    <clipPath
       id="clipPath4524"
       clipPathUnits="userSpaceOnUse">
      <path
         inkscape:connector-curvature="0"
         id="path4526"
         d="m 244.517,292.999 28.549,0 0,-27.541 -28.549,0 0,27.541 z" />
    </clipPath>
    <clipPath
       id="clipPath4528"
       clipPathUnits="userSpaceOnUse">
      <path
         inkscape:connector-curvature="0"
         id="path4530"
         d="m 244.517,265.458 28.55,0 0,27.542 -28.55,0 0,-27.542 z" />
    </clipPath>
    <clipPath
       id="clipPath4532"
       clipPathUnits="userSpaceOnUse">
      <path
         inkscape:connector-curvature="0"
         id="path4534"
         d="m 228.482,276.379 28.543,0 0,-27.534 -28.543,0 0,27.534 z" />
    </clipPath>
    <clipPath
       id="clipPath4536"
       clipPathUnits="userSpaceOnUse">
      <path
         inkscape:connector-curvature="0"
         id="path4538"
         d="m 228.482,248.845 28.542,0 0,27.533 -28.542,0 0,-27.533 z" />
    </clipPath>
    <clipPath
       id="clipPath4540"
       clipPathUnits="userSpaceOnUse">
      <path
         inkscape:connector-curvature="0"
         id="path4542"
         d="m 287.058,337.211 28.549,0 0,-27.54 -28.549,0 0,27.54 z" />
    </clipPath>
    <clipPath
       id="clipPath4544"
       clipPathUnits="userSpaceOnUse">
      <path
         inkscape:connector-curvature="0"
         id="path4546"
         d="m 287.058,309.671 28.549,0 0,27.54 -28.549,0 0,-27.54 z" />
    </clipPath>
    <clipPath
       id="clipPath4548"
       clipPathUnits="userSpaceOnUse">
      <path
         inkscape:connector-curvature="0"
         id="path4550"
         d="m 271.024,320.591 28.542,0 0,-27.533 -28.542,0 0,27.533 z" />
    </clipPath>
    <clipPath
       id="clipPath4552"
       clipPathUnits="userSpaceOnUse">
      <path
         inkscape:connector-curvature="0"
         id="path4554"
         d="m 271.024,293.058 28.542,0 0,27.533 -28.542,0 0,-27.533 z" />
    </clipPath>
    <clipPath
       id="clipPath4556"
       clipPathUnits="userSpaceOnUse">
      <path
         inkscape:connector-curvature="0"
         id="path4558"
         d="m 220.804,269.468 29.634,0 0,-28.671 -29.634,0 0,28.671 z" />
    </clipPath>
    <clipPath
       id="clipPath4560"
       clipPathUnits="userSpaceOnUse">
      <path
         inkscape:connector-curvature="0"
         id="path4562"
         d="m 220.804,240.797 29.634,0 0,28.671 -29.634,0 0,-28.671 z" />
    </clipPath>
    <clipPath
       id="clipPath4564"
       clipPathUnits="userSpaceOnUse">
      <path
         inkscape:connector-curvature="0"
         id="path4566"
         d="m 293.652,345.225 29.6,0 0,-28.636 -29.6,0 0,28.636 z" />
    </clipPath>
    <clipPath
       id="clipPath4568"
       clipPathUnits="userSpaceOnUse">
      <path
         inkscape:connector-curvature="0"
         id="path4570"
         d="m 293.652,316.589 29.6,0 0,28.636 -29.6,0 0,-28.636 z" />
    </clipPath>
    <clipPath
       id="clipPath4572"
       clipPathUnits="userSpaceOnUse">
      <path
         inkscape:connector-curvature="0"
         id="path4574"
         d="m 305.926,262.819 76.544,0 0,-70.458 -76.544,0 0,70.458 z" />
    </clipPath>
    <clipPath
       id="clipPath4576"
       clipPathUnits="userSpaceOnUse">
      <path
         inkscape:connector-curvature="0"
         id="path4578"
         d="m 305.926,192.361 76.544,0 0,70.459 -76.544,0 0,-70.459 z" />
    </clipPath>
    <clipPath
       id="clipPath4580"
       clipPathUnits="userSpaceOnUse">
      <path
         inkscape:connector-curvature="0"
         id="path4582"
         d="m 299.648,332.756 15.819,0 0,-15.217 -15.819,0 0,15.217 z" />
    </clipPath>
    <clipPath
       id="clipPath4584"
       clipPathUnits="userSpaceOnUse">
      <path
         inkscape:connector-curvature="0"
         id="path4586"
         d="m 299.648,317.539 15.819,0 0,15.218 -15.819,0 0,-15.218 z" />
    </clipPath>
    <clipPath
       id="clipPath4588"
       clipPathUnits="userSpaceOnUse">
      <path
         inkscape:connector-curvature="0"
         id="path4590"
         d="m 297.695,271.314 9.946,0 0,-9.703 -9.946,0 0,9.703 z" />
    </clipPath>
    <clipPath
       id="clipPath4592"
       clipPathUnits="userSpaceOnUse">
      <path
         inkscape:connector-curvature="0"
         id="path4594"
         d="m 297.695,261.611 9.946,0 0,9.704 -9.946,0 0,-9.704 z" />
    </clipPath>
    <clipPath
       id="clipPath4832"
       clipPathUnits="userSpaceOnUse">
      <path
         inkscape:connector-curvature="0"
         id="path4834"
         d="m 212.98,330.816 227.539,0 0,-199.821 -227.539,0 0,199.821 z" />
    </clipPath>
    <clipPath
       id="clipPath4836"
       clipPathUnits="userSpaceOnUse">
      <path
         inkscape:connector-curvature="0"
         id="path4838"
         d="m 212.98,130.995 227.539,0 0,199.82 -227.539,0 0,-199.82 z" />
    </clipPath>
    <clipPath
       id="clipPath4840"
       clipPathUnits="userSpaceOnUse">
      <path
         inkscape:connector-curvature="0"
         id="path4842"
         d="m 243.205,295.971 26.046,0 0,-31.072 -26.046,0 0,31.072 z" />
    </clipPath>
    <clipPath
       id="clipPath4844"
       clipPathUnits="userSpaceOnUse">
      <path
         inkscape:connector-curvature="0"
         id="path4846"
         d="m 243.205,264.899 26.046,0 0,31.072 -26.046,0 0,-31.072 z" />
    </clipPath>
    <clipPath
       id="clipPath4848"
       clipPathUnits="userSpaceOnUse">
      <path
         inkscape:connector-curvature="0"
         id="path4850"
         d="m 248.398,291.951 35.272,0 0,-38.392 -35.272,0 0,38.392 z" />
    </clipPath>
    <clipPath
       id="clipPath4852"
       clipPathUnits="userSpaceOnUse">
      <path
         inkscape:connector-curvature="0"
         id="path4854"
         d="m 248.398,253.559 35.272,0 0,38.392 -35.272,0 0,-38.392 z" />
    </clipPath>
    <clipPath
       id="clipPath4856"
       clipPathUnits="userSpaceOnUse">
      <path
         inkscape:connector-curvature="0"
         id="path4858"
         d="m 236.147,272.22 30.863,0 0,-24.87 -30.863,0 0,24.87 z" />
    </clipPath>
    <clipPath
       id="clipPath4860"
       clipPathUnits="userSpaceOnUse">
      <path
         inkscape:connector-curvature="0"
         id="path4862"
         d="m 236.147,247.35 30.862,0 0,24.87 -30.862,0 0,-24.87 z" />
    </clipPath>
    <clipPath
       id="clipPath4864"
       clipPathUnits="userSpaceOnUse">
      <path
         inkscape:connector-curvature="0"
         id="path4866"
         d="m 221.647,254.27 30.859,0 0,-24.857 -30.859,0 0,24.857 z" />
    </clipPath>
    <clipPath
       id="clipPath4868"
       clipPathUnits="userSpaceOnUse">
      <path
         inkscape:connector-curvature="0"
         id="path4870"
         d="m 221.647,229.413 30.86,0 0,24.858 -30.86,0 0,-24.858 z" />
    </clipPath>
    <clipPath
       id="clipPath4872"
       clipPathUnits="userSpaceOnUse">
      <path
         inkscape:connector-curvature="0"
         id="path4874"
         d="m 274.281,320.285 30.862,0 0,-24.868 -30.862,0 0,24.868 z" />
    </clipPath>
    <clipPath
       id="clipPath4876"
       clipPathUnits="userSpaceOnUse">
      <path
         inkscape:connector-curvature="0"
         id="path4878"
         d="m 274.281,295.417 30.862,0 0,24.868 -30.862,0 0,-24.868 z" />
    </clipPath>
    <clipPath
       id="clipPath4880"
       clipPathUnits="userSpaceOnUse">
      <path
         inkscape:connector-curvature="0"
         id="path4882"
         d="m 259.781,302.336 30.86,0 0,-24.859 -30.86,0 0,24.859 z" />
    </clipPath>
    <clipPath
       id="clipPath4884"
       clipPathUnits="userSpaceOnUse">
      <path
         inkscape:connector-curvature="0"
         id="path4886"
         d="m 259.781,277.477 30.859,0 0,24.859 -30.859,0 0,-24.859 z" />
    </clipPath>
    <clipPath
       id="clipPath4888"
       clipPathUnits="userSpaceOnUse">
      <path
         inkscape:connector-curvature="0"
         id="path4890"
         d="m 214.726,246.601 32.038,0 0,-25.902 -32.038,0 0,25.902 z" />
    </clipPath>
    <clipPath
       id="clipPath4892"
       clipPathUnits="userSpaceOnUse">
      <path
         inkscape:connector-curvature="0"
         id="path4894"
         d="m 214.726,220.699 32.038,0 0,25.902 -32.038,0 0,-25.902 z" />
    </clipPath>
    <clipPath
       id="clipPath4896"
       clipPathUnits="userSpaceOnUse">
      <path
         inkscape:connector-curvature="0"
         id="path4898"
         d="m 280.026,328.96 32.008,0 0,-25.864 -32.008,0 0,25.864 z" />
    </clipPath>
    <clipPath
       id="clipPath4900"
       clipPathUnits="userSpaceOnUse">
      <path
         inkscape:connector-curvature="0"
         id="path4902"
         d="m 280.026,303.096 32.008,0 0,25.864 -32.008,0 0,-25.864 z" />
    </clipPath>
    <clipPath
       id="clipPath4904"
       clipPathUnits="userSpaceOnUse">
      <path
         inkscape:connector-curvature="0"
         id="path4906"
         d="m 300.261,248.319 81.615,0 0,-64.7 -81.615,0 0,64.7 z" />
    </clipPath>
    <clipPath
       id="clipPath4908"
       clipPathUnits="userSpaceOnUse">
      <path
         inkscape:connector-curvature="0"
         id="path4910"
         d="m 300.261,183.619 81.615,0 0,64.7 -81.615,0 0,-64.7 z" />
    </clipPath>
    <clipPath
       id="clipPath4912"
       clipPathUnits="userSpaceOnUse">
      <path
         inkscape:connector-curvature="0"
         id="path4914"
         d="m 287.096,317.039 17.179,0 0,-13.665 -17.179,0 0,13.665 z" />
    </clipPath>
    <clipPath
       id="clipPath4916"
       clipPathUnits="userSpaceOnUse">
      <path
         inkscape:connector-curvature="0"
         id="path4918"
         d="m 287.096,303.374 17.179,0 0,13.664 -17.179,0 0,-13.664 z" />
    </clipPath>
    <clipPath
       id="clipPath4920"
       clipPathUnits="userSpaceOnUse">
      <path
         inkscape:connector-curvature="0"
         id="path4922"
         d="m 291.401,256.066 10.019,0 0,-9.487 -10.019,0 0,9.487 z" />
    </clipPath>
    <clipPath
       id="clipPath4924"
       clipPathUnits="userSpaceOnUse">
      <path
         inkscape:connector-curvature="0"
         id="path4926"
         d="m 291.401,246.579 10.019,0 0,9.487 -10.019,0 0,-9.487 z" />
    </clipPath>
    <clipPath
       id="clipPath5344"
       clipPathUnits="userSpaceOnUse">
      <path
         inkscape:connector-curvature="0"
         id="path5346"
         d="m 230.528,284.404 23.798,0 0,-32.681 -23.798,0 0,32.681 z" />
    </clipPath>
    <clipPath
       id="clipPath5348"
       clipPathUnits="userSpaceOnUse">
      <path
         inkscape:connector-curvature="0"
         id="path5350"
         d="m 230.528,251.723 23.798,0 0,32.681 -23.798,0 0,-32.681 z" />
    </clipPath>
    <clipPath
       id="clipPath5372"
       clipPathUnits="userSpaceOnUse">
      <path
         inkscape:connector-curvature="0"
         id="path5374"
         d="m 236.021,280.803 33.568,0 0,-39.256 -33.568,0 0,39.256 z" />
    </clipPath>
    <clipPath
       id="clipPath5376"
       clipPathUnits="userSpaceOnUse">
      <path
         inkscape:connector-curvature="0"
         id="path5378"
         d="m 236.021,241.547 33.568,0 0,39.256 -33.568,0 0,-39.256 z" />
    </clipPath>
    <clipPath
       id="clipPath5396"
       clipPathUnits="userSpaceOnUse">
      <path
         inkscape:connector-curvature="0"
         id="path5398"
         d="m 223.149,258.309 32.581,0 0,-22.506 -32.581,0 0,22.506 z" />
    </clipPath>
    <clipPath
       id="clipPath5400"
       clipPathUnits="userSpaceOnUse">
      <path
         inkscape:connector-curvature="0"
         id="path5402"
         d="m 223.149,235.803 32.581,0 0,22.506 -32.581,0 0,-22.506 z" />
    </clipPath>
    <clipPath
       id="clipPath5420"
       clipPathUnits="userSpaceOnUse">
      <path
         inkscape:connector-curvature="0"
         id="path5422"
         d="m 210.037,239.388 32.582,0 0,-22.489 -32.582,0 0,22.489 z" />
    </clipPath>
    <clipPath
       id="clipPath5424"
       clipPathUnits="userSpaceOnUse">
      <path
         inkscape:connector-curvature="0"
         id="path5426"
         d="m 210.037,216.899 32.582,0 0,22.49 -32.582,0 0,-22.49 z" />
    </clipPath>
    <clipPath
       id="clipPath5444"
       clipPathUnits="userSpaceOnUse">
      <path
         inkscape:connector-curvature="0"
         id="path5446"
         d="m 257.401,309.213 32.582,0 0,-22.503 -32.582,0 0,22.503 z" />
    </clipPath>
    <clipPath
       id="clipPath5448"
       clipPathUnits="userSpaceOnUse">
      <path
         inkscape:connector-curvature="0"
         id="path5450"
         d="m 257.401,286.71 32.582,0 0,22.503 -32.582,0 0,-22.503 z" />
    </clipPath>
    <clipPath
       id="clipPath5468"
       clipPathUnits="userSpaceOnUse">
      <path
         inkscape:connector-curvature="0"
         id="path5470"
         d="m 244.288,290.295 32.582,0 0,-22.492 -32.582,0 0,22.492 z" />
    </clipPath>
    <clipPath
       id="clipPath5472"
       clipPathUnits="userSpaceOnUse">
      <path
         inkscape:connector-curvature="0"
         id="path5474"
         d="m 244.288,267.803 32.582,0 0,22.491 -32.582,0 0,-22.491 z" />
    </clipPath>
    <clipPath
       id="clipPath5492"
       clipPathUnits="userSpaceOnUse">
      <path
         inkscape:connector-curvature="0"
         id="path5494"
         d="m 203.785,231.148 33.797,0 0,-23.45 -33.797,0 0,23.45 z" />
    </clipPath>
    <clipPath
       id="clipPath5496"
       clipPathUnits="userSpaceOnUse">
      <path
         inkscape:connector-curvature="0"
         id="path5498"
         d="m 203.785,207.698 33.796,0 0,23.45 -33.796,0 0,-23.45 z" />
    </clipPath>
    <clipPath
       id="clipPath5516"
       clipPathUnits="userSpaceOnUse">
      <path
         inkscape:connector-curvature="0"
         id="path5518"
         d="m 262.438,318.373 33.769,0 0,-23.41 -33.769,0 0,23.41 z" />
    </clipPath>
    <clipPath
       id="clipPath5520"
       clipPathUnits="userSpaceOnUse">
      <path
         inkscape:connector-curvature="0"
         id="path5522"
         d="m 262.438,294.963 33.769,0 0,23.41 -33.769,0 0,-23.41 z" />
    </clipPath>
    <clipPath
       id="clipPath5540"
       clipPathUnits="userSpaceOnUse">
      <path
         inkscape:connector-curvature="0"
         id="path5542"
         d="m 289.06,239.755 85.243,0 0,-59.552 -85.243,0 0,59.552 z" />
    </clipPath>
    <clipPath
       id="clipPath5544"
       clipPathUnits="userSpaceOnUse">
      <path
         inkscape:connector-curvature="0"
         id="path5546"
         d="m 289.06,180.203 85.243,0 0,59.552 -85.243,0 0,-59.552 z" />
    </clipPath>
    <clipPath
       id="clipPath5580"
       clipPathUnits="userSpaceOnUse">
      <path
         inkscape:connector-curvature="0"
         id="path5582"
         d="m 270.341,306.983 18.181,0 0,-12.299 -18.181,0 0,12.299 z" />
    </clipPath>
    <clipPath
       id="clipPath5584"
       clipPathUnits="userSpaceOnUse">
      <path
         inkscape:connector-curvature="0"
         id="path5586"
         d="m 270.341,294.684 18.182,0 0,12.299 -18.182,0 0,-12.299 z" />
    </clipPath>
    <clipPath
       id="clipPath5608"
       clipPathUnits="userSpaceOnUse">
      <path
         inkscape:connector-curvature="0"
         id="path5610"
         d="m 449.433,254.456 66.198,0 0,-77.557 -66.198,0 0,77.557 z" />
    </clipPath>
    <clipPath
       id="clipPath5612"
       clipPathUnits="userSpaceOnUse">
      <path
         inkscape:connector-curvature="0"
         id="path5614"
         d="m 449.433,176.899 66.198,0 0,77.557 -66.198,0 0,-77.557 z" />
    </clipPath>
    <clipPath
       id="clipPath5632"
       clipPathUnits="userSpaceOnUse">
      <path
         inkscape:connector-curvature="0"
         id="path5634"
         d="m 279.761,246.81 10.011,0 0,-9.245 -10.011,0 0,9.245 z" />
    </clipPath>
    <clipPath
       id="clipPath5636"
       clipPathUnits="userSpaceOnUse">
      <path
         inkscape:connector-curvature="0"
         id="path5638"
         d="m 279.761,237.565 10.011,0 0,9.245 -10.011,0 0,-9.245 z" />
    </clipPath>
    <clipPath
       id="clipPath5752"
       clipPathUnits="userSpaceOnUse">
      <path
         inkscape:connector-curvature="0"
         id="path5754"
         d="m -41.5247,-11.4187 18.8311,0 0,-98.2523 -18.8311,0 0,98.2523 z" />
    </clipPath>
    <clipPath
       id="clipPath5756"
       clipPathUnits="userSpaceOnUse">
      <path
         inkscape:connector-curvature="0"
         id="path5758"
         d="m -41.525,-109.671 18.831,0 0,98.252 -18.831,0 0,-98.252 z" />
    </clipPath>
    <clipPath
       id="clipPath5774"
       clipPathUnits="userSpaceOnUse">
      <path
         inkscape:connector-curvature="0"
         id="path5776"
         d="m 97.4446,-11.4187 18.8314,0 0,-98.2523 -18.8314,0 0,98.2523 z" />
    </clipPath>
    <clipPath
       id="clipPath5778"
       clipPathUnits="userSpaceOnUse">
      <path
         inkscape:connector-curvature="0"
         id="path5780"
         d="m 97.445,-109.671 18.831,0 0,98.252 -18.831,0 0,-98.252 z" />
    </clipPath>
    <clipPath
       id="clipPath5796"
       clipPathUnits="userSpaceOnUse">
      <path
         inkscape:connector-curvature="0"
         id="path5798"
         d="m 236.411,-11.4187 18.835,0 0,-98.2523 -18.835,0 0,98.2523 z" />
    </clipPath>
    <clipPath
       id="clipPath5800"
       clipPathUnits="userSpaceOnUse">
      <path
         inkscape:connector-curvature="0"
         id="path5802"
         d="m 236.411,-109.671 18.835,0 0,98.252 -18.835,0 0,-98.252 z" />
    </clipPath>
    <clipPath
       id="clipPath5818"
       clipPathUnits="userSpaceOnUse">
      <path
         inkscape:connector-curvature="0"
         id="path5820"
         d="m 375.381,-11.4187 18.832,0 0,-98.2523 -18.832,0 0,98.2523 z" />
    </clipPath>
    <clipPath
       id="clipPath5822"
       clipPathUnits="userSpaceOnUse">
      <path
         inkscape:connector-curvature="0"
         id="path5824"
         d="m 375.381,-109.671 18.832,0 0,98.252 -18.832,0 0,-98.252 z" />
    </clipPath>
    <clipPath
       id="clipPath5848"
       clipPathUnits="userSpaceOnUse">
      <path
         inkscape:connector-curvature="0"
         id="path5850"
         d="m -61.4573,39.3907 476.0173,0 0,-38.654204 -476.0173,0 0,38.654204 z" />
    </clipPath>
    <clipPath
       id="clipPath5852"
       clipPathUnits="userSpaceOnUse">
      <path
         inkscape:connector-curvature="0"
         id="path5854"
         d="m -61.457,0.736 476.018,0 0,38.654 -476.018,0 0,-38.654 z" />
    </clipPath>
    <clipPath
       id="clipPath5886"
       clipPathUnits="userSpaceOnUse">
      <path
         inkscape:connector-curvature="0"
         id="path5888"
         d="m 36,640.256 153.141,0 0,43.744 L 36,684 36,640.256 Z" />
    </clipPath>
    <clipPath
       id="clipPath5958"
       clipPathUnits="userSpaceOnUse">
      <path
         inkscape:connector-curvature="0"
         id="path5960"
         d="m 36.014,640.256 153.128,0 0,43.744 -153.128,0 0,-43.744 z" />
    </clipPath>
    <clipPath
       id="clipPath5974"
       clipPathUnits="userSpaceOnUse">
      <path
         inkscape:connector-curvature="0"
         id="path5976"
         d="m 36,640.256 153.141,0 0,43.744 L 36,684 36,640.256 Z" />
    </clipPath>
    <clipPath
       id="clipPath6006"
       clipPathUnits="userSpaceOnUse">
      <path
         inkscape:connector-curvature="0"
         id="path6008"
         d="m 36.014,640.256 153.128,0 0,43.744 -153.128,0 0,-43.744 z" />
    </clipPath>
    <clipPath
       id="clipPath6022"
       clipPathUnits="userSpaceOnUse">
      <path
         inkscape:connector-curvature="0"
         id="path6024"
         d="m 36,640.256 153.141,0 0,43.744 L 36,684 36,640.256 Z" />
    </clipPath>
    <clipPath
       id="clipPath6036"
       clipPathUnits="userSpaceOnUse">
      <path
         inkscape:connector-curvature="0"
         id="path6038"
         d="M 0,0 540,0 540,720 0,720 0,0 Z" />
    </clipPath>
    <clipPath
       id="clipPath7848"
       clipPathUnits="userSpaceOnUse">
      <path
         inkscape:connector-curvature="0"
         id="path7850"
         d="m 0,437.642 396,0 0,-437.582 -396,0 0,437.582 z" />
    </clipPath>
    <clipPath
       id="clipPath7860"
       clipPathUnits="userSpaceOnUse">
      <path
         inkscape:connector-curvature="0"
         id="path7862"
         d="M 0,612 396,612 396,0.06 0,0.06 0,612 Z" />
    </clipPath>
  </defs>
  <sodipodi:namedview
     id="base"
     pagecolor="#ffffff"
     bordercolor="#666666"
     borderopacity="1.0"
     inkscape:pageopacity="0.0"
     inkscape:pageshadow="2"
     inkscape:zoom="1"
     inkscape:cx="205.20826"
     inkscape:cy="143.16584"
     inkscape:document-units="px"
     inkscape:current-layer="layer1"
     showgrid="false"
     fit-margin-top="0"
     fit-margin-left="0"
     fit-margin-right="0"
     fit-margin-bottom="0"
     inkscape:window-width="1020"
     inkscape:window-height="854"
     inkscape:window-x="371"
     inkscape:window-y="162"
     inkscape:window-maximized="0" />
  <metadata
     id="metadata7">
    <rdf:RDF>
      <cc:Work
         rdf:about="">
        <dc:format>image/svg+xml</dc:format>
        <dc:type
           rdf:resource="http://purl.org/dc/dcmitype/StillImage" />
        <dc:title></dc:title>
      </cc:Work>
    </rdf:RDF>
  </metadata>
  <g
     inkscape:label="Calque 1"
     inkscape:groupmode="layer"
     id="layer1"
     transform="translate(-199.07912,500.64874)">
    <g
       id="g8089"
       transform="matrix(2.5652004,0,0,2.5652004,-414.77195,326.96303)"
       style="fill:#52231e;fill-opacity:1">
      <g
         transform="matrix(1.25,0,0,-1.25,338.90913,-315.03923)"
         id="g7866"
         style="fill:#52231e;fill-opacity:1">
        <path
           inkscape:connector-curvature="0"
           id="path7868"
           style="fill:#52231e;fill-opacity:1;fill-rule:nonzero;stroke:none"
           d="m 0,0 c -1.954,0 -3.374,-1.675 -3.426,-3.518 -0.029,-1.057 0.55,-1.959 2,-1.959 2.264,0 3.46,1.999 3.5,3.488 C 2.113,-0.827 1.376,0 0,0 m 0.04,-3.979 c -0.371,-0.68 -0.799,-1.078 -1.371,-1.078 -0.528,0 -0.747,0.386 -0.722,1.079 0.046,1.311 0.86,3.575 2.09,3.575 0.444,0 0.739,-0.307 0.718,-1.014 -0.02,-0.675 -0.286,-1.78 -0.715,-2.562" />
      </g>
      <g
         transform="matrix(1.25,0,0,-1.25,355.08038,-311.53423)"
         id="g7870"
         style="fill:#52231e;fill-opacity:1">
        <path
           inkscape:connector-curvature="0"
           id="path7872"
           style="fill:#52231e;fill-opacity:1;fill-rule:nonzero;stroke:none"
           d="m 0,0 c 0,0.453 -0.234,0.748 -0.579,0.748 -0.299,0 -0.503,-0.222 -0.503,-0.501 0,-0.357 0.334,-0.454 0.334,-0.917 -0.001,-0.191 -0.076,-0.383 -0.237,-0.566 -0.23,-0.22 -0.553,-0.379 -1.511,-0.379 l -2.325,0 c -0.269,0 -0.344,0.113 -0.231,0.434 0.346,0.993 0.821,2.16 0.918,2.654 0.13,0.648 -0.151,1.249 -0.973,1.249 -1.294,0 -2.138,-1.129 -3.275,-3.272 l -0.066,0 c 0,0 0.825,1.929 0.825,2.564 0,0.45 -0.272,0.7 -0.759,0.7 -0.747,0 -1.51,-0.777 -1.839,-1.207 l 0.229,-0.222 c 0.15,0.188 0.377,0.411 0.545,0.542 0.298,0.231 0.598,0.194 0.509,-0.301 -0.115,-0.641 -0.983,-2.93 -1.451,-4.096 l 1.352,0 c 1.387,2.78 2.405,4.568 3.214,4.568 0.235,0 0.357,-0.144 0.357,-0.392 0,-0.5 -0.728,-2.189 -1.027,-3.19 -0.176,-0.593 -0.135,-0.986 0.385,-0.986 l 2.588,0 c 1.074,0 1.937,0.501 2.31,0.769 C -0.468,-1.297 0,-0.606 0,0" />
      </g>
      <g
         transform="matrix(1.25,0,0,-1.25,250.02413,-299.20298)"
         id="g7874"
         style="fill:#52231e;fill-opacity:1">
        <path
           inkscape:connector-curvature="0"
           id="path7876"
           style="fill:#52231e;fill-opacity:1;fill-rule:nonzero;stroke:none"
           d="m 0,0 0,1.582 -6.432,0 0,-10.715 1.812,0 0,4.681 4.184,0 0,1.586 -4.184,0 0,2.866" />
      </g>
      <g
         transform="matrix(1.25,0,0,-1.25,315.92788,-299.37298)"
         id="g7878"
         style="fill:#52231e;fill-opacity:1">
        <path
           inkscape:connector-curvature="0"
           id="path7880"
           style="fill:#52231e;fill-opacity:1;fill-rule:nonzero;stroke:none"
           d="m 0,0 c -1.091,1.082 -2.435,1.704 -4.253,1.704 -3.15,0 -5.68,-2.278 -5.68,-5.669 0,-3.385 2.275,-5.534 5.515,-5.534 l 0.01,0 c 3.016,0 5.254,1.886 5.265,4.998 l 0,0.331 -5.249,0 0,-1.523 3.254,0 c -0.35,-1.482 -1.695,-2.175 -3.16,-2.175 -2.261,0 -3.718,1.506 -3.721,3.957 0.006,2.268 1.499,3.996 3.682,3.999 1.557,0 2.536,-0.722 3.125,-1.314" />
      </g>
      <g
         transform="matrix(1.25,0,0,-1.25,247.48788,-272.92548)"
         id="g7882"
         style="fill:#52231e;fill-opacity:1">
        <path
           inkscape:connector-curvature="0"
           id="path7884"
           style="fill:#52231e;fill-opacity:1;fill-rule:nonzero;stroke:none"
           d="m 0,0 c 0,0 -0.014,0.013 0.083,0.025 1.56,0.183 2.759,1.426 2.759,3.146 0,1.878 -1.4,3.093 -3.565,3.093 l -3.681,0 0,-10.755 1.8,0 0,4.453 0.439,0 3.621,-4.453 2.287,0 L 0,0 Z m -2.604,1.369 0,3.32 1.483,0 c 1.934,0 2.16,-0.891 2.16,-1.558 0,-0.657 -0.279,-1.762 -2.146,-1.762" />
      </g>
      <g
         transform="matrix(1.25,0,0,-1.25,258.43788,-273.26173)"
         id="g7886"
         style="fill:#52231e;fill-opacity:1">
        <path
           inkscape:connector-curvature="0"
           id="path7888"
           style="fill:#52231e;fill-opacity:1;fill-rule:nonzero;stroke:none"
           d="m 0,0 4.103,0 0,1.559 -4.103,0 0,2.861 4.593,0 0,1.56 -6.462,0 0,-10.754 6.811,0 0,1.564 -4.942,0" />
      </g>
      <g
         transform="matrix(1.25,0,0,-1.25,271.32538,-280.75673)"
         id="g7890"
         style="fill:#52231e;fill-opacity:1">
        <path
           inkscape:connector-curvature="0"
           id="path7892"
           style="fill:#52231e;fill-opacity:1;fill-rule:nonzero;stroke:none"
           d="m 0,0 -1.866,0 0,-10.755 6.559,0 0,1.55 -4.693,0" />
      </g>
      <g
         transform="matrix(1.25,0,0,-1.25,292.07038,-278.78673)"
         id="g7894"
         style="fill:#52231e;fill-opacity:1">
        <path
           inkscape:connector-curvature="0"
           id="path7896"
           style="fill:#52231e;fill-opacity:1;fill-rule:nonzero;stroke:none"
           d="m 0,0 3.325,0 0,-9.18 1.804,0 0,9.18 3.323,0 0,1.576 -8.452,0" />
      </g>
      <path
         inkscape:connector-curvature="0"
         id="path7898"
         style="fill:#52231e;fill-opacity:1;fill-rule:nonzero;stroke:none"
         d="m 306.15538,-267.31298 2.33912,0 0,-13.44375 -2.33912,0 0,13.44375 z" />
      <g
         transform="matrix(1.25,0,0,-1.25,338.79288,-272.22048)"
         id="g7900"
         style="fill:#52231e;fill-opacity:1">
        <path
           inkscape:connector-curvature="0"
           id="path7902"
           style="fill:#52231e;fill-opacity:1;fill-rule:nonzero;stroke:none"
           d="m 0,0 c -0.313,0.312 -7.219,7.233 -7.219,7.233 l 0,-11.159 1.798,0 0,6.783 c 0.313,-0.31 7.219,-7.225 7.219,-7.225 l 0,11.197 -1.798,0" />
      </g>
      <g
         transform="matrix(1.25,0,0,-1.25,349.75663,-275.09798)"
         id="g7904"
         style="fill:#52231e;fill-opacity:1">
        <path
           inkscape:connector-curvature="0"
           id="path7906"
           style="fill:#52231e;fill-opacity:1;fill-rule:nonzero;stroke:none"
           d="m 0,0 c -1.328,0.659 -1.924,1.151 -1.924,1.924 0,1.169 1.2,1.313 1.559,1.313 0.761,0 1.471,-0.254 2.096,-0.838 l 0.914,1.303 c -1.011,0.794 -1.94,1.031 -3.01,1.031 -1.96,0 -3.329,-1.193 -3.329,-2.905 0,-1.639 1.076,-2.454 2.897,-3.385 1.257,-0.641 1.892,-1.206 1.892,-1.963 0,-0.846 -0.735,-1.346 -1.702,-1.346 -1.022,0 -1.827,0.345 -2.64,1.102 l -1.017,-1.275 c 1.171,-1.08 2.398,-1.384 3.524,-1.384 2.432,0 3.657,1.38 3.657,3.064 C 2.917,-1.634 1.611,-0.802 0,0" />
      </g>
      <g
         transform="matrix(1.25,0,0,-1.25,251.25288,-311.89423)"
         id="g7908"
         style="fill:#52231e;fill-opacity:1">
        <path
           inkscape:connector-curvature="0"
           id="path7910"
           style="fill:#52231e;fill-opacity:1;fill-rule:nonzero;stroke:none"
           d="m 0,0 c -0.867,-0.993 -1.977,-1.492 -3.205,-1.492 -2.188,0 -3.824,1.483 -3.824,3.998 0,2.298 1.536,3.89 3.597,3.89 1.147,0 2.132,-0.376 3.009,-1.254 l 1.197,1.214 c -1.066,1.131 -2.44,1.664 -4.185,1.664 -3.127,0 -5.528,-2.385 -5.528,-5.566 0,-3.337 2.286,-5.566 5.501,-5.566 1.894,0 3.392,0.638 4.473,1.867" />
      </g>
      <g
         transform="matrix(1.25,0,0,-1.25,312.45538,-311.86673)"
         id="g7912"
         style="fill:#52231e;fill-opacity:1">
        <path
           inkscape:connector-curvature="0"
           id="path7914"
           style="fill:#52231e;fill-opacity:1;fill-rule:nonzero;stroke:none"
           d="m 0,0 c -0.867,-0.992 -1.884,-1.462 -3.272,-1.462 -2.282,0 -3.824,1.483 -3.824,3.998 0,2.297 1.541,3.897 3.603,3.897 1.146,0 2.132,-0.377 3.007,-1.255 l 1.185,1.198 c -1.029,1.137 -2.432,1.666 -4.177,1.666 -3.214,0 -5.529,-2.385 -5.529,-5.565 0,-3.338 2.22,-5.567 5.501,-5.567 1.981,0 3.46,0.608 4.541,1.837" />
      </g>
      <g
         transform="matrix(1.25,0,0,-1.25,276.71413,-308.12048)"
         id="g7916"
         style="fill:#52231e;fill-opacity:1">
        <path
           inkscape:connector-curvature="0"
           id="path7918"
           style="fill:#52231e;fill-opacity:1;fill-rule:nonzero;stroke:none"
           d="m 0,0 c 2.539,0 4.004,1.378 4.419,3.227 0.082,0.366 0.123,0.9 0.123,1.356 l 0,6.318 -1.804,0 0,-6.266 c 0,-2.013 -0.993,-3.014 -2.723,-3.014 -1.784,0 -2.851,1.034 -2.851,3.014 l 0,6.266 -1.803,0 0,-6.318 c 0,-0.476 0.042,-0.991 0.126,-1.357 C -4.088,1.377 -2.59,0 0,0" />
      </g>
      <g
         transform="matrix(1.25,0,0,-1.25,288.78538,-316.91798)"
         id="g7920"
         style="fill:#52231e;fill-opacity:1">
        <path
           inkscape:connector-curvature="0"
           id="path7922"
           style="fill:#52231e;fill-opacity:1;fill-rule:nonzero;stroke:none"
           d="m 0,0 c 0.314,-0.31 7.273,-7.332 7.273,-7.332 l 0,11.195 -1.754,0 0,-6.93 C 5.209,-2.752 -1.75,4.269 -1.75,4.269 l 0,-11.16 1.75,0" />
      </g>
      <path
         inkscape:connector-curvature="0"
         id="path7924"
         style="fill:#52231e;fill-opacity:1;fill-rule:nonzero;stroke:none"
         d="m 316.58913,-308.30548 2.33537,0 0,-13.4425 -2.33537,0 0,13.4425 z" />
      <g
         transform="matrix(1.25,0,0,-1.25,331.82288,-310.24423)"
         id="g7926"
         style="fill:#52231e;fill-opacity:1">
        <path
           inkscape:connector-curvature="0"
           id="path7928"
           style="fill:#52231e;fill-opacity:1;fill-rule:nonzero;stroke:none"
           d="m 0,0 -4.743,0 0,9.203 -1.873,0 0,-10.754 6.616,0" />
      </g>
      <g
         transform="matrix(1.25,0,0,-1.25,253.99663,-314.97798)"
         id="g7930"
         style="fill:#52231e;fill-opacity:1">
        <path
           inkscape:connector-curvature="0"
           id="path7932"
           style="fill:#52231e;fill-opacity:1;fill-rule:nonzero;stroke:none"
           d="M 0,0 C -0.003,3.229 2.419,5.636 5.633,5.636 8.847,5.636 11.267,3.229 11.266,0 11.267,-3.228 8.946,-5.636 5.633,-5.636 2.32,-5.636 -0.003,-3.228 0,0 m 5.633,4.043 c -2.067,0 -3.743,-1.64 -3.743,-4.044 0,-2.405 1.594,-4.046 3.743,-4.046 2.15,0 3.742,1.641 3.742,4.046 0,2.404 -1.675,4.044 -3.742,4.044" />
      </g>
      <g
         transform="matrix(1.25,0,0,-1.25,252.44913,-294.48423)"
         id="g7934"
         style="fill:#52231e;fill-opacity:1">
        <path
           inkscape:connector-curvature="0"
           id="path7936"
           style="fill:#52231e;fill-opacity:1;fill-rule:nonzero;stroke:none"
           d="M 0,0 C -0.003,3.23 2.419,5.638 5.633,5.638 8.848,5.638 11.268,3.23 11.267,0 11.268,-3.228 8.946,-5.635 5.633,-5.635 2.321,-5.635 -0.003,-3.228 0,0 m 5.633,4.044 c -2.066,0 -3.741,-1.64 -3.741,-4.045 0,-2.405 1.592,-4.045 3.741,-4.045 2.15,0 3.742,1.64 3.742,4.045 0,2.405 -1.675,4.045 -3.742,4.045" />
      </g>
      <g
         transform="matrix(1.25,0,0,-1.25,286.43788,-293.75548)"
         id="g7938"
         style="fill:#52231e;fill-opacity:1">
        <path
           inkscape:connector-curvature="0"
           id="path7940"
           style="fill:#52231e;fill-opacity:1;fill-rule:nonzero;stroke:none"
           d="m 0,0 4.104,0 0,1.56 -4.104,0 0,2.86 4.593,0 0,1.56 -6.462,0 0,-10.754 6.811,0 0,1.565 -4.942,0" />
      </g>
      <path
         inkscape:connector-curvature="0"
         id="path7942"
         style="fill:#52231e;fill-opacity:1;fill-rule:nonzero;stroke:none"
         d="m 297.10538,-287.78798 2.33563,0 0,-13.44375 -2.33563,0 0,13.44375 z" />
      <g
         transform="matrix(1.25,0,0,-1.25,275.85913,-293.40173)"
         id="g7944"
         style="fill:#52231e;fill-opacity:1">
        <path
           inkscape:connector-curvature="0"
           id="path7946"
           style="fill:#52231e;fill-opacity:1;fill-rule:nonzero;stroke:none"
           d="m 0,0 c 0,0 -0.014,0.013 0.082,0.025 1.56,0.183 2.76,1.427 2.76,3.145 0,1.879 -1.401,3.095 -3.565,3.095 l -3.681,0 0,-10.756 1.8,0 0,4.453 0.438,0 3.622,-4.453 2.287,0 L 0,0 Z m -2.604,1.369 0,3.32 1.484,0 c 1.932,0 2.159,-0.89 2.159,-1.559 0,-0.656 -0.279,-1.761 -2.146,-1.761" />
      </g>
      <g
         transform="matrix(1.25,0,0,-1.25,287.85038,-270.43923)"
         id="g7948"
         style="fill:#52231e;fill-opacity:1">
        <path
           inkscape:connector-curvature="0"
           id="path7950"
           style="fill:#52231e;fill-opacity:1;fill-rule:nonzero;stroke:none"
           d="m 0,0 -4.112,0 -1.048,-2.498 -1.88,0 5.043,11.462 5.012,-11.462 -1.984,0 L 0,0 Z M -0.661,1.594 -2.059,4.955 -3.464,1.594" />
      </g>
      <g
         transform="matrix(1.25,0,0,-1.25,312.09788,-273.98298)"
         id="g7952"
         style="fill:#52231e;fill-opacity:1">
        <path
           inkscape:connector-curvature="0"
           id="path7954"
           style="fill:#52231e;fill-opacity:1;fill-rule:nonzero;stroke:none"
           d="M 0,0 C -0.004,3.231 2.42,5.636 5.633,5.636 8.848,5.636 11.27,3.231 11.266,0 11.27,-3.228 8.946,-5.636 5.633,-5.636 2.321,-5.636 -0.004,-3.228 0,0 m 5.633,4.043 c -2.066,0 -3.741,-1.639 -3.741,-4.044 0,-2.405 1.593,-4.046 3.741,-4.046 2.151,0 3.743,1.641 3.743,4.046 0,2.405 -1.674,4.044 -3.743,4.044" />
      </g>
      <g
         transform="matrix(1.25,0,0,-1.25,322.78663,-296.40173)"
         id="g7956"
         style="fill:#52231e;fill-opacity:1">
        <path
           inkscape:connector-curvature="0"
           id="path7958"
           style="fill:#52231e;fill-opacity:1;fill-rule:nonzero;stroke:none"
           d="m 0,0 c 0.314,-0.31 7.273,-7.332 7.273,-7.332 l 0,11.196 -1.753,0 0,-6.93 c -0.311,0.314 -7.269,7.335 -7.269,7.335 l 0,-11.16 1.749,0" />
      </g>
    </g>
  </g>
</svg>
