<svg version="1.1" id="Layer_1" xmlns="http://www.w3.org/2000/svg" xmlns:xlink="http://www.w3.org/1999/xlink" x="0px" y="0px"
	 width="100%" viewBox="0 0 1200 454" enable-background="new 0 0 1200 454" xml:space="preserve">
<path fill="#FFFFFF" opacity="1.000000" stroke="none" 
	d="
M743.000000,455.000000 
	C495.333374,455.000000 248.166733,455.000000 1.000066,455.000000 
	C1.000044,303.666718 1.000044,152.333435 1.000022,1.000071 
	C200.999924,1.000000 400.999847,1.000000 600.999756,1.000000 
	C800.999756,1.000000 1000.999756,1.000000 1200.999756,1.000000 
	C1200.999878,152.333221 1200.999878,303.666443 1201.000000,454.999817 
	C1048.500000,455.000000 896.000000,455.000000 743.000000,455.000000 
M384.131317,181.577515 
	C379.649414,196.104965 375.083588,210.607178 370.706360,225.166107 
	C364.948395,244.317459 359.230316,263.482635 353.765991,282.718811 
	C352.791260,286.150146 352.725037,289.980896 352.950745,293.582611 
	C353.426025,301.166840 356.778229,303.595825 364.221710,302.006165 
	C368.403534,301.113068 372.581726,300.044159 376.611206,298.626892 
	C387.965118,294.633545 398.161469,288.651398 407.063354,280.484985 
	C405.961670,278.113556 405.002838,276.049622 404.136841,274.185547 
	C397.455292,277.537170 391.047394,280.923431 384.484039,283.975281 
	C380.901672,285.641022 378.418701,283.967316 378.269989,279.968719 
	C378.185333,277.693451 378.322815,275.274078 379.008636,273.126709 
	C386.867737,248.520569 394.830872,223.947525 402.812592,199.380722 
	C405.881958,189.933655 409.069489,180.524979 412.203186,171.098816 
	C415.146637,179.511719 417.472687,187.782913 418.584442,196.214218 
	C422.099182,222.868683 425.221741,249.575760 428.353729,276.279175 
	C429.180603,283.328979 429.289795,290.465088 430.186981,297.503113 
	C430.411896,299.267212 432.194427,301.884918 433.649719,302.177551 
	C435.530396,302.555695 438.131012,301.428589 439.817078,300.151520 
	C441.736206,298.697937 443.205658,296.497650 444.498474,294.393280 
	C461.924774,266.028381 479.355225,237.665405 496.611450,209.196976 
	C500.557465,202.687057 503.847168,195.779282 507.633820,188.689697 
	C508.248718,189.811264 508.696747,190.351532 508.860291,190.967331 
	C512.719360,205.497360 517.392761,219.876068 520.173584,234.611496 
	C523.868469,254.190018 525.979065,274.064087 529.045288,293.768372 
	C529.509094,296.749084 530.710327,300.581238 532.901062,302.099335 
	C536.141235,304.344666 538.367188,300.477692 540.608704,298.389862 
	C540.974182,298.049438 541.353027,297.710236 541.654175,297.315918 
	C558.479004,275.289520 573.722412,252.230988 586.602173,227.669769 
	C591.196045,218.909409 595.307129,209.895920 599.638550,200.997971 
	C600.242004,202.434525 600.152039,203.672134 599.845337,204.853485 
	C596.112671,219.231491 592.521851,233.649307 588.558655,247.963913 
	C577.582214,287.609467 568.924561,327.925659 554.293274,366.518433 
	C549.353516,379.547913 544.327148,392.532349 535.872253,403.793579 
	C527.682068,414.702179 521.611877,415.112946 512.207031,405.653137 
	C511.384552,404.825867 510.670227,403.848450 509.732483,403.185822 
	C505.636871,400.291687 501.752716,396.895874 497.267395,394.809479 
	C492.266876,392.483398 487.811188,396.007202 487.311218,401.553619 
	C486.864197,406.512817 488.988708,410.184326 492.541107,413.289215 
	C501.905640,421.474121 513.144409,420.710083 524.099609,419.050659 
	C539.680054,416.690674 551.287354,407.282440 560.913452,395.420105 
	C576.557556,376.141815 585.582764,353.619751 591.933655,329.920135 
	C602.365784,290.990417 612.651550,252.021423 622.975891,213.062866 
	C628.770935,191.195419 634.578674,169.330872 640.211365,147.421463 
	C640.880066,144.820328 641.831726,143.948502 644.502747,143.917618 
	C657.790283,143.763992 671.075562,143.408417 684.361206,143.108353 
	C685.805969,143.075729 687.248474,142.942932 688.707031,142.855698 
	C688.707031,139.117889 688.707031,135.724854 688.707031,132.449005 
	C673.874084,132.449005 659.367310,132.449005 644.699158,132.449005 
	C644.699158,131.523956 644.536499,130.830429 644.722717,130.248550 
	C650.766418,111.365227 656.378174,92.324287 663.116943,73.691132 
	C666.380127,64.668167 671.938843,56.478222 680.509155,51.209187 
	C688.637451,46.211891 693.760498,48.825455 695.368469,58.021660 
	C696.210693,62.838814 697.322021,67.822517 699.531067,72.101624 
	C700.727478,74.419212 704.378540,76.332710 707.128235,76.651268 
	C708.696472,76.832954 711.436035,73.752014 712.324097,71.595039 
	C714.469238,66.384521 715.419495,60.849098 713.595886,55.183182 
	C710.884399,46.758335 706.469299,39.142864 697.389832,37.448925 
	C687.977783,35.692947 678.417053,36.897594 669.425293,41.323254 
	C655.557068,48.149014 646.477783,59.597675 640.635559,73.095230 
	C632.823059,91.144630 626.535950,109.862457 619.871338,128.393051 
	C618.659668,131.761963 617.293396,133.088959 613.610168,132.973648 
	C604.453003,132.686935 595.278931,132.768738 586.115417,132.923859 
	C581.124695,133.008331 578.159546,136.951370 580.644226,140.069077 
	C581.841431,141.571304 584.126221,142.443481 586.088684,143.051971 
	C590.755737,144.499115 593.704529,147.147797 593.284363,152.324799 
	C592.802979,158.255188 592.668457,164.294510 591.386475,170.065079 
	C586.005066,194.289398 577.337891,217.326050 564.996643,238.891953 
	C561.616150,244.799240 557.640869,250.366150 553.736267,256.401794 
	C547.997375,231.038651 542.900330,206.478851 536.772705,182.178940 
	C532.982605,167.148743 527.764526,152.466965 522.822998,137.751160 
	C522.067627,135.501663 519.338135,133.915115 517.521667,132.021942 
	C515.700928,134.052658 513.860596,136.066483 512.078308,138.130432 
	C511.775299,138.481323 511.692017,139.038834 511.556335,139.514877 
	C505.269440,161.571594 497.192841,182.957870 486.418091,203.205200 
	C477.109406,220.697601 467.161987,237.850098 457.496887,255.152847 
	C456.963593,254.944901 456.430328,254.736938 455.897034,254.528992 
	C455.264740,248.557343 454.683899,242.579742 453.990814,236.615158 
	C451.648224,216.454926 449.903229,196.196274 446.666962,176.179428 
	C444.625092,163.550262 440.404297,151.265121 437.005188,138.868362 
	C435.898224,134.831238 433.518219,132.364700 428.685486,132.790710 
	C424.055054,133.198914 419.360443,132.879044 414.694031,132.879059 
	C397.917542,132.879074 381.141022,132.879074 364.295197,132.879074 
	C364.295197,135.908081 364.295197,137.795929 364.295197,139.989090 
	C368.766907,139.989090 372.910736,139.989151 377.054565,139.989090 
	C388.491791,139.988907 393.702332,146.279053 391.040283,157.476593 
	C389.170746,165.340408 386.669434,173.054016 384.131317,181.577515 
M404.818329,98.140106 
	C403.995636,108.781975 411.741272,114.744011 421.662781,111.105713 
	C429.309631,108.301559 433.504395,100.794304 433.193115,90.470131 
	C433.017426,84.641998 429.680756,81.248787 423.907898,81.027512 
	C414.651520,80.672699 407.393921,86.996742 404.818329,98.140106 
z"/>
<path fill="#E87E20" opacity="1.000000" stroke="none" 
	d="
M384.290771,181.206116 
	C386.669434,173.054016 389.170746,165.340408 391.040283,157.476593 
	C393.702332,146.279053 388.491791,139.988907 377.054565,139.989090 
	C372.910736,139.989151 368.766907,139.989090 364.295197,139.989090 
	C364.295197,137.795929 364.295197,135.908081 364.295197,132.879074 
	C381.141022,132.879074 397.917542,132.879074 414.694031,132.879059 
	C419.360443,132.879044 424.055054,133.198914 428.685486,132.790710 
	C433.518219,132.364700 435.898224,134.831238 437.005188,138.868362 
	C440.404297,151.265121 444.625092,163.550262 446.666962,176.179428 
	C449.903229,196.196274 451.648224,216.454926 453.990814,236.615158 
	C454.683899,242.579742 455.264740,248.557343 455.897034,254.528992 
	C456.430328,254.736938 456.963593,254.944901 457.496887,255.152847 
	C467.161987,237.850098 477.109406,220.697601 486.418091,203.205200 
	C497.192841,182.957870 505.269440,161.571594 511.556335,139.514877 
	C511.692017,139.038834 511.775299,138.481323 512.078308,138.130432 
	C513.860596,136.066483 515.700928,134.052658 517.521667,132.021942 
	C519.338135,133.915115 522.067627,135.501663 522.822998,137.751160 
	C527.764526,152.466965 532.982605,167.148743 536.772705,182.178940 
	C542.900330,206.478851 547.997375,231.038651 553.736267,256.401794 
	C557.640869,250.366150 561.616150,244.799240 564.996643,238.891953 
	C577.337891,217.326050 586.005066,194.289398 591.386475,170.065079 
	C592.668457,164.294510 592.802979,158.255188 593.284363,152.324799 
	C593.704529,147.147797 590.755737,144.499115 586.088684,143.051971 
	C584.126221,142.443481 581.841431,141.571304 580.644226,140.069077 
	C578.159546,136.951370 581.124695,133.008331 586.115417,132.923859 
	C595.278931,132.768738 604.453003,132.686935 613.610168,132.973648 
	C617.293396,133.088959 618.659668,131.761963 619.871338,128.393051 
	C626.535950,109.862457 632.823059,91.144630 640.635559,73.095230 
	C646.477783,59.597675 655.557068,48.149014 669.425293,41.323254 
	C678.417053,36.897594 687.977783,35.692947 697.389832,37.448925 
	C706.469299,39.142864 710.884399,46.758335 713.595886,55.183182 
	C715.419495,60.849098 714.469238,66.384521 712.324097,71.595039 
	C711.436035,73.752014 708.696472,76.832954 707.128235,76.651268 
	C704.378540,76.332710 700.727478,74.419212 699.531067,72.101624 
	C697.322021,67.822517 696.210693,62.838814 695.368469,58.021660 
	C693.760498,48.825455 688.637451,46.211891 680.509155,51.209187 
	C671.938843,56.478222 666.380127,64.668167 663.116943,73.691132 
	C656.378174,92.324287 650.766418,111.365227 644.722717,130.248550 
	C644.536499,130.830429 644.699158,131.523956 644.699158,132.449005 
	C659.367310,132.449005 673.874084,132.449005 688.707031,132.449005 
	C688.707031,135.724854 688.707031,139.117889 688.707031,142.855698 
	C687.248474,142.942932 685.805969,143.075729 684.361206,143.108353 
	C671.075562,143.408417 657.790283,143.763992 644.502747,143.917618 
	C641.831726,143.948502 640.880066,144.820328 640.211365,147.421463 
	C634.578674,169.330872 628.770935,191.195419 622.975891,213.062866 
	C612.651550,252.021423 602.365784,290.990417 591.933655,329.920135 
	C585.582764,353.619751 576.557556,376.141815 560.913452,395.420105 
	C551.287354,407.282440 539.680054,416.690674 524.099609,419.050659 
	C513.144409,420.710083 501.905640,421.474121 492.541107,413.289215 
	C488.988708,410.184326 486.864197,406.512817 487.311218,401.553619 
	C487.811188,396.007202 492.266876,392.483398 497.267395,394.809479 
	C501.752716,396.895874 505.636871,400.291687 509.732483,403.185822 
	C510.670227,403.848450 511.384552,404.825867 512.207031,405.653137 
	C521.611877,415.112946 527.682068,414.702179 535.872253,403.793579 
	C544.327148,392.532349 549.353516,379.547913 554.293274,366.518433 
	C568.924561,327.925659 577.582214,287.609467 588.558655,247.963913 
	C592.521851,233.649307 596.112671,219.231491 599.845337,204.853485 
	C600.152039,203.672134 600.242004,202.434525 599.638550,200.997971 
	C595.307129,209.895920 591.196045,218.909409 586.602173,227.669769 
	C573.722412,252.230988 558.479004,275.289520 541.654175,297.315918 
	C541.353027,297.710236 540.974182,298.049438 540.608704,298.389862 
	C538.367188,300.477692 536.141235,304.344666 532.901062,302.099335 
	C530.710327,300.581238 529.509094,296.749084 529.045288,293.768372 
	C525.979065,274.064087 523.868469,254.190018 520.173584,234.611496 
	C517.392761,219.876068 512.719360,205.497360 508.860291,190.967331 
	C508.696747,190.351532 508.248718,189.811264 507.633820,188.689697 
	C503.847168,195.779282 500.557465,202.687057 496.611450,209.196976 
	C479.355225,237.665405 461.924774,266.028381 444.498474,294.393280 
	C443.205658,296.497650 441.736206,298.697937 439.817078,300.151520 
	C438.131012,301.428589 435.530396,302.555695 433.649719,302.177551 
	C432.194427,301.884918 430.411896,299.267212 430.186981,297.503113 
	C429.289795,290.465088 429.180603,283.328979 428.353729,276.279175 
	C425.221741,249.575760 422.099182,222.868683 418.584442,196.214218 
	C417.472687,187.782913 415.146637,179.511719 412.203186,171.098816 
	C409.069489,180.524979 405.881958,189.933655 402.812592,199.380722 
	C394.830872,223.947525 386.867737,248.520569 379.008636,273.126709 
	C378.322815,275.274078 378.185333,277.693451 378.269989,279.968719 
	C378.418701,283.967316 380.901672,285.641022 384.484039,283.975281 
	C391.047394,280.923431 397.455292,277.537170 404.136841,274.185547 
	C405.002838,276.049622 405.961670,278.113556 407.063354,280.484985 
	C398.161469,288.651398 387.965118,294.633545 376.611206,298.626892 
	C372.581726,300.044159 368.403534,301.113068 364.221710,302.006165 
	C356.778229,303.595825 353.426025,301.166840 352.950745,293.582611 
	C352.725037,289.980896 352.791260,286.150146 353.765991,282.718811 
	C359.230316,263.482635 364.948395,244.317459 370.706360,225.166107 
	C375.083588,210.607178 379.649414,196.104965 384.290771,181.206116 
z"/>
<path fill="#E87E1F" opacity="1.000000" stroke="none" 
	d="
M404.964294,97.773643 
	C407.393921,86.996742 414.651520,80.672699 423.907898,81.027512 
	C429.680756,81.248787 433.017426,84.641998 433.193115,90.470131 
	C433.504395,100.794304 429.309631,108.301559 421.662781,111.105713 
	C411.741272,114.744011 403.995636,108.781975 404.964294,97.773643 
z"/>
</svg>